<svg xmlns="http://www.w3.org/2000/svg" version="1.1" xmlns:xlink="http://www.w3.org/1999/xlink" xmlns:svgjs="http://svgjs.dev/svgjs" width="2000" height="1749" viewBox="0 0 2000 1749"><g transform="matrix(1,0,0,1,-0.011187584431922915,-2.132926829268172)"><svg viewBox="0 0 375 328" data-background-color="#ffffff" preserveAspectRatio="xMidYMid meet" height="1749" width="2000" xmlns="http://www.w3.org/2000/svg" xmlns:xlink="http://www.w3.org/1999/xlink"><g id="tight-bounds" transform="matrix(1,0,0,1,0.003289474588683561,0.39999999999997726)"><svg viewBox="0 0 374.99440705708315 327.2" height="327.2" width="374.99440705708315"><g><svg viewBox="0 0 395.52 345.10953114108725" height="327.2" width="374.99440705708315"><g transform="matrix(1,0,0,1,0,178.47901776568708)"><svg viewBox="0 0 395.52 166.6305133754002" height="166.6305133754002" width="395.52"><g id="textblocktransform"><svg viewBox="0 0 395.52 166.6305133754002" height="166.6305133754002" width="395.52" id="textblock"><g><svg viewBox="0 0 395.52 166.6305133754002" height="166.6305133754002" width="395.52"><g transform="matrix(1,0,0,1,0,0)"><svg width="395.52" viewBox="-6.997422120504639 -12.406109815846213 131.91512777147474 55.57515731948958" height="166.6305133754002" data-palette-color="#000000"><path d="M24.341 11.386v0c0.561 0.214 1.013 0.243 1.358 0.089 0.344-0.154 0.935-0.535 1.773-1.144v0l9.011-6.519c0.306-0.24 0.598-0.371 0.877-0.393 0.271-0.018 0.531 0.02 0.78 0.115v0l0.795 0.303c0.436 0.166 0.713 0.404 0.831 0.712 0.109 0.313 0.069 0.718-0.121 1.217v0l-9.06 23.782-0.468-0.178 9.06-23.782c0.095-0.249 0.129-0.497 0.101-0.743-0.036-0.242-0.21-0.422-0.521-0.541v0l-0.701-0.267c-0.218-0.083-0.417-0.123-0.596-0.12-0.179 0.003-0.422 0.125-0.728 0.365v0l-8.975 6.425c-0.881 0.627-1.527 1.041-1.939 1.242-0.418 0.198-0.969 0.166-1.655-0.096v0c-0.685-0.261-1.115-0.603-1.289-1.026-0.18-0.425-0.391-1.165-0.631-2.22v0l-2.425-10.769c-0.068-0.383-0.175-0.637-0.319-0.763-0.151-0.129-0.335-0.235-0.553-0.318v0l-0.701-0.267c-0.311-0.119-0.552-0.096-0.722 0.068-0.172 0.17-0.305 0.38-0.4 0.628v0l-9.06 23.783-0.467-0.178 9.06-23.783c0.19-0.498 0.433-0.827 0.729-0.985 0.287-0.155 0.633-0.155 1.038 0v0l0.794 0.302c0.249 0.095 0.478 0.243 0.687 0.444 0.206 0.207 0.344 0.502 0.412 0.885v0l2.39 10.862c0.221 1.012 0.409 1.689 0.563 2.034 0.154 0.344 0.512 0.623 1.072 0.836zM2.724 23.75l6.962 2.653c0.592 0.225 1.073 0.255 1.442 0.089 0.361-0.162 0.655-0.539 0.88-1.131v0l6.266-16.447 0.816 6.143c0.079 0.636 0.27 1.145 0.575 1.525 0.296 0.384 0.74 0.689 1.332 0.914v0l1.869 0.712c0.592 0.225 1.129 0.295 1.612 0.207 0.474-0.083 0.952-0.336 1.434-0.759v0l4.697-4.043-6.265 16.447c-0.225 0.592-0.254 1.07-0.086 1.434 0.16 0.368 0.535 0.664 1.127 0.889v0l7.196 2.741c0.592 0.225 1.073 0.255 1.442 0.09 0.361-0.162 0.655-0.539 0.88-1.131v0l11.534-30.278c0.225-0.592 0.258-1.072 0.099-1.439-0.168-0.364-0.548-0.658-1.14-0.883v0l-7.569-2.884c-0.498-0.19-0.954-0.239-1.368-0.146-0.407 0.095-0.846 0.338-1.316 0.729v0l-7.059 6.032c-0.263 0.221-0.47 0.374-0.624 0.458-0.16 0.082-0.333 0.087-0.52 0.016v0l-0.421-0.16c-0.187-0.071-0.31-0.189-0.368-0.354-0.065-0.167-0.121-0.421-0.17-0.761v0l-1.304-9.218c-0.09-0.605-0.256-1.079-0.497-1.42-0.247-0.344-0.62-0.611-1.118-0.801v0l-7.523-2.865c-0.592-0.225-1.068-0.257-1.43-0.095-0.37 0.166-0.668 0.545-0.893 1.136v0l-11.534 30.278c-0.225 0.592-0.254 1.07-0.086 1.433 0.16 0.368 0.535 0.664 1.128 0.889zM11.163 27.019v0l-7.997 2.732c-0.172 0.077-0.407 0.113-0.704 0.107-0.303-0.009-0.611-0.072-0.922-0.191v0l-6.962-2.652c-0.748-0.285-1.227-0.664-1.44-1.137-0.212-0.473-0.176-1.084 0.109-1.832v0l11.534-30.277c0.154-0.405 0.341-0.726 0.56-0.964 0.213-0.24 0.464-0.412 0.753-0.516v0l7.968-2.797c0.203-0.065 0.454-0.087 0.753-0.066 0.29 0.025 0.591 0.097 0.902 0.216v0l7.523 2.865c0.592 0.225 1.037 0.538 1.334 0.936 0.291 0.396 0.496 0.956 0.613 1.679v0l0.952 7.05 0.705-0.587c0.208-0.171 0.422-0.331 0.644-0.482 0.213-0.147 0.421-0.253 0.624-0.319v0l7.95-2.75c0.32-0.092 0.632-0.134 0.936-0.125 0.297 0.006 0.633 0.081 1.007 0.223v0l7.569 2.883c0.748 0.285 1.227 0.664 1.44 1.137 0.212 0.473 0.176 1.084-0.109 1.831v0l-11.534 30.278c-0.154 0.405-0.338 0.727-0.551 0.967-0.219 0.238-0.473 0.408-0.762 0.513v0l-7.997 2.732c-0.172 0.077-0.407 0.113-0.704 0.106-0.303-0.009-0.611-0.072-0.922-0.191v0l-7.196-2.741c-0.779-0.297-1.265-0.678-1.458-1.144-0.2-0.468-0.157-1.076 0.128-1.824v0l4.699-12.335-3.629 1.239c-0.332 0.123-0.681 0.176-1.045 0.159-0.373-0.014-0.777-0.104-1.213-0.27v0l-0.608-0.231-1.637 4.298c-0.154 0.405-0.338 0.727-0.551 0.968-0.219 0.238-0.473 0.408-0.762 0.512zM75.093 42.322v0l-24.785 0.844c-0.8 0.027-1.389-0.136-1.768-0.49-0.379-0.354-0.582-0.931-0.609-1.73v0l-0.228-6.696c-0.025-0.733 0.064-1.363 0.266-1.891 0.196-0.52 0.518-1.038 0.967-1.553v0l11.019-14.334-9.644 0.329c-0.8 0.027-1.389-0.136-1.768-0.49-0.379-0.354-0.582-0.931-0.609-1.731v0l-0.206-6.046c-0.015-0.433 0.033-0.802 0.142-1.106 0.103-0.304 0.268-0.559 0.494-0.767v0l6.261-5.666c0.162-0.139 0.385-0.257 0.669-0.353 0.277-0.089 0.582-0.14 0.915-0.151v0l22.987-0.783c0.8-0.027 1.389 0.136 1.767 0.49 0.379 0.354 0.582 0.931 0.61 1.73v0l0.253 7.446c0.025 0.733-0.06 1.37-0.255 1.91-0.202 0.541-0.527 1.069-0.977 1.584v0l-10.492 13.615 10.893-0.371c0.8-0.027 1.389 0.136 1.768 0.49 0.379 0.354 0.582 0.931 0.609 1.73v0l0.203 5.947c0.015 0.433-0.033 0.802-0.143 1.105-0.103 0.304-0.268 0.559-0.494 0.768v0l-6.312 5.618c-0.129 0.138-0.331 0.261-0.608 0.371-0.283 0.11-0.591 0.17-0.924 0.181zM56.552 37l24.785-0.844c0.633-0.022 1.084-0.18 1.355-0.476 0.277-0.29 0.405-0.751 0.383-1.384v0l-0.203-5.947c-0.022-0.633-0.18-1.088-0.476-1.364-0.289-0.27-0.751-0.395-1.384-0.373v0l-11.943 0.406 11.115-14.436c0.417-0.481 0.717-0.968 0.901-1.462 0.184-0.487 0.264-1.063 0.241-1.729v0l-0.253-7.446c-0.022-0.633-0.177-1.088-0.467-1.365-0.296-0.27-0.761-0.394-1.393-0.372v0l-22.987 0.782c-0.633 0.022-1.085 0.177-1.355 0.467-0.277 0.296-0.404 0.761-0.383 1.394v0l0.206 6.046c0.022 0.633 0.18 1.084 0.477 1.355 0.29 0.277 0.751 0.405 1.383 0.383v0l10.694-0.364-11.641 15.155c-0.417 0.481-0.718 0.965-0.901 1.451-0.183 0.493-0.264 1.056-0.243 1.689v0l0.228 6.696c0.022 0.633 0.177 1.085 0.467 1.355 0.296 0.277 0.761 0.404 1.394 0.383zM75.165 9.151v0l-14.002 19.287c-0.223 0.308-0.388 0.564-0.494 0.767-0.113 0.204-0.164 0.473-0.153 0.806v0l0.024 0.7c0.016 0.466 0.136 0.769 0.361 0.908 0.218 0.146 0.461 0.214 0.727 0.205v0l16.841-0.573 0.017 0.5-16.841 0.573c-0.533 0.018-0.927-0.102-1.182-0.36-0.262-0.258-0.403-0.67-0.423-1.236v0l-0.027-0.8c-0.012-0.366 0.06-0.696 0.216-0.988 0.157-0.286 0.347-0.582 0.571-0.89v0l14.001-19.287c0.223-0.308 0.391-0.564 0.504-0.768 0.106-0.204 0.154-0.472 0.143-0.805v0l-0.024-0.7c-0.016-0.466-0.133-0.773-0.351-0.918-0.225-0.139-0.471-0.204-0.737-0.195v0l-15.241 0.519-0.017-0.5 15.241-0.519c0.533-0.018 0.931 0.102 1.193 0.359 0.256 0.258 0.393 0.67 0.412 1.237v0l0.027 0.8c0.012 0.366-0.06 0.692-0.217 0.978-0.157 0.292-0.347 0.592-0.569 0.9zM113.514 32.178l-14.679 5.844c-0.743 0.296-1.353 0.341-1.829 0.136-0.476-0.205-0.862-0.679-1.159-1.422v0l-2.163-5.436c-0.16-0.403-0.24-0.765-0.24-1.088-0.006-0.321 0.063-0.617 0.206-0.889v0l3.092-5.752c-1.839 0.158-3.467-0.173-4.884-0.994-1.421-0.812-2.575-2.333-3.463-4.563v0l-1.942-4.877c-0.555-1.394-0.816-2.725-0.783-3.994 0.033-1.269 0.335-2.448 0.907-3.536v0l4.023-7.468c0.565-1.014 1.389-1.963 2.473-2.846 1.086-0.877 2.419-1.63 3.998-2.259v0l13.007-5.178c0.743-0.296 1.353-0.341 1.829-0.136 0.476 0.205 0.862 0.679 1.158 1.422v0l2.201 5.528c0.16 0.403 0.24 0.765 0.24 1.089 0.006 0.321-0.063 0.617-0.206 0.889v0l-2.794 5.148c2.124-0.343 4.02-0.158 5.689 0.556 1.665 0.722 2.997 2.337 3.996 4.846v0l1.941 4.877c0.555 1.394 0.816 2.725 0.783 3.994-0.033 1.269-0.351 2.454-0.953 3.555v0l-3.995 7.402c-0.584 1.058-1.417 2.028-2.501 2.912-1.086 0.877-2.403 1.624-3.951 2.24zM102.627 30.108l14.679-5.844c2.973-1.184 5.041-2.821 6.203-4.912 1.154-2.095 1.206-4.459 0.159-7.092v0l-1.942-4.877c-1.036-2.601-2.441-4.195-4.217-4.78-1.776-0.585-3.809-0.601-6.1-0.047v0l-7.291 1.826c-0.415 0.129-0.786 0.098-1.114-0.094-0.328-0.192-0.572-0.49-0.732-0.893v0c-0.16-0.403-0.185-0.78-0.075-1.133 0.113-0.346 0.371-0.6 0.774-0.76v0l10.824-4.309c0.588-0.234 0.96-0.536 1.114-0.906 0.163-0.366 0.127-0.843-0.107-1.432v0l-2.201-5.528c-0.234-0.588-0.538-0.963-0.91-1.123-0.364-0.157-0.84-0.118-1.428 0.117v0l-13.007 5.178c-3.004 1.196-5.078 2.836-6.222 4.92-1.141 2.09-1.188 4.452-0.14 7.084v0l1.942 4.877c1.036 2.601 2.435 4.197 4.198 4.787 1.757 0.592 3.781 0.612 6.072 0.058v0l7.357-1.798c0.415-0.129 0.774-0.111 1.077 0.056 0.297 0.169 0.55 0.517 0.759 1.043v0c0.148 0.372 0.175 0.727 0.08 1.066-0.098 0.348-0.349 0.602-0.751 0.762v0l-12.496 4.974c-0.588 0.234-0.964 0.534-1.127 0.901-0.154 0.37-0.114 0.849 0.12 1.437v0l2.164 5.435c0.234 0.588 0.533 0.961 0.897 1.118 0.372 0.16 0.853 0.123 1.441-0.111zM99.106-2.394l10.313-4.106 0.185 0.465-10.313 4.105c-1.301 0.518-2.196 1.287-2.687 2.308-0.491 1.021-0.52 2.073-0.089 3.156v0l1.516 3.81c0.431 1.084 0.95 1.756 1.557 2.017 0.606 0.261 1.29 0.312 2.051 0.152v0l10.598-1.905c1.003-0.184 1.931-0.087 2.785 0.291 0.847 0.38 1.592 1.376 2.232 2.986v0l1.073 2.694c0.542 1.363 0.524 2.669-0.055 3.918-0.576 1.256-1.654 2.198-3.234 2.827v0l-11.567 4.605-0.185-0.465 11.567-4.605c1.425-0.567 2.406-1.417 2.946-2.55 0.535-1.124 0.557-2.306 0.063-3.545v0l-1.072-2.694c-0.579-1.456-1.232-2.355-1.957-2.698-0.729-0.334-1.563-0.422-2.504-0.262v0l-10.598 1.904c-0.867 0.166-1.65 0.108-2.35-0.173-0.704-0.272-1.309-1.043-1.814-2.313v0l-1.517-3.809c-0.493-1.239-0.464-2.427 0.088-3.565 0.554-1.132 1.543-1.981 2.968-2.548z" opacity="1" transform="matrix(1,0,0,1,0,0)" fill="#000000" class="wordmark-text-0" data-fill-palette-color="primary" id="text-0"></path></svg></g></svg></g></svg></g></svg></g><g transform="matrix(1,0,0,1,148.93823165065157,0)"><svg viewBox="0 0 97.64353669869686 168.2968185091542" height="168.2968185091542" width="97.64353669869686"><g><svg xmlns="http://www.w3.org/2000/svg" xmlns:xlink="http://www.w3.org/1999/xlink" version="1.1" x="0" y="0" viewBox="21.679106830508616 1 56.85827385947762 98" enable-background="new 0 0 100 100" xml:space="preserve" height="168.2968185091542" width="97.64353669869686" class="icon-icon-0" data-fill-palette-color="accent" id="icon-0"><g fill="#000000" data-fill-palette-color="accent"><path fill-rule="evenodd" clip-rule="evenodd" d="M30.545 28.822C29.38 36.039 30.875 43.672 37.045 47.863 30.758 19.81 45.756 8.664 59.646 1 43.466 24.046 76.542 24.644 78.423 51.13 80.028 73.71 64.507 91.317 46.639 99 46.845 76.175 24.089 73.067 21.801 54.397 20.905 47.094 25.062 33.766 30.545 28.822" fill="#000000" data-fill-palette-color="accent"></path></g></svg></g></svg></g><g></g></svg></g><defs></defs></svg><rect width="374.99440705708315" height="327.2" fill="none" stroke="none" visibility="hidden"></rect></g></svg></g></svg>